<svg width="20" height="18" viewBox="0 0 20 18" fill="none" xmlns="http://www.w3.org/2000/svg">
<path d="M10.725 11.5583L8.60837 9.46666L8.63337 9.44166C10.0834 7.82499 11.1167 5.96666 11.725 3.99999H14.1667V2.33332H8.33337V0.666656H6.66671V2.33332H0.833374V3.99166H10.1417C9.58337 5.59999 8.70004 7.12499 7.50004 8.45832C6.72504 7.59999 6.08337 6.65832 5.57504 5.66666H3.90837C4.51671 7.02499 5.35004 8.30832 6.39171 9.46666L2.15004 13.65L3.33337 14.8333L7.50004 10.6667L10.0917 13.2583L10.725 11.5583ZM15.4167 7.33332H13.75L10 17.3333H11.6667L12.6 14.8333H16.5584L17.5 17.3333H19.1667L15.4167 7.33332ZM13.2334 13.1667L14.5834 9.55832L15.9334 13.1667H13.2334V13.1667Z" fill="white" fill-opacity="0.5"/>
</svg>
